#N canvas 934 166 578 749 12;
#X msg 54 190 10;
#X msg 93 191 5;
#X obj 55 246 +, f 6;
#X obj 54 129 bng 19 250 50 0 empty empty empty 0 -10 0 12 #fcfcfc #000000 #000000;
#X floatatom 55 278 5 0 0 0 - - - 0;
#X text 50 33 bang once: result is 10 bang twice: result is 15 due to order of connecting the operators \, the sequence of calculations is performed.;
#X msg 56 394 10;
#X msg 95 395 5;
#X obj 57 450 +, f 6;
#X floatatom 57 482 5 0 0 0 - - - 0;
#X obj 56 334 bng 19 250 50 0 empty empty empty 0 -10 0 12 #fcfcfc #000000 #000000;
#X obj 56 362 trigger b b;
#X obj 163 363 t b b;
#X text 100 334 trigger (t) ensures right to leftt bang order;
#X connect 0 0 2 0;
#X connect 1 0 2 1;
#X connect 2 0 4 0;
#X connect 3 0 1 0;
#X connect 3 0 0 0;
#X connect 6 0 8 0;
#X connect 7 0 8 1;
#X connect 8 0 9 0;
#X connect 10 0 11 0;
#X connect 11 0 6 0;
#X connect 11 1 7 0;
