#N canvas 1047 244 550 678 12;
#X obj 34 74 metro 500;
#X obj 34 107 bng 19 250 50 0 empty empty empty 0 -10 0 12 #fcfcfc #000000 #000000;
#X msg 152 19 1;
#X msg 189 19 0;
#X msg 81 19 stop;
#X msg 35 19 bang;
#X obj 79 404 metro;
#X msg 111 276 60000;
#X floatatom 171 277 5 0 0 0 - - - 0;
#X obj 111 312 /, f 9;
#X obj 78 241 t b b b, f 10;
#X obj 78 207 bng 19 250 50 0 empty empty empty 0 -10 0 12 #fcfcfc #000000 #000000;
#X floatatom 228 331 5 0 0 0 - - - 0;
#X obj 111 348 i;
#X floatatom 227 369 5 0 0 0 - - - 0;
#X msg 36 206 0;
#X msg 217 207 60;
#X obj 217 171 loadbang;
#X obj 79 457 int;
#X obj 114 458 + 1;
#X floatatom 79 487 5 0 0 0 - - - 0;
#X obj 79 515 % 8;
#X floatatom 79 544 5 0 0 0 - - - 0;
#X msg 162 439 0;
#X text 197 438 reset;
#X connect 0 0 1 0;
#X connect 2 0 0 0;
#X connect 3 0 0 0;
#X connect 4 0 0 0;
#X connect 5 0 0 0;
#X connect 6 0 18 0;
#X connect 7 0 9 0;
#X connect 8 0 9 1;
#X connect 9 0 12 0;
#X connect 9 0 13 0;
#X connect 10 0 6 0;
#X connect 10 1 7 0;
#X connect 10 2 8 0;
#X connect 11 0 10 0;
#X connect 13 0 14 0;
#X connect 13 0 6 1;
#X connect 15 0 6 0;
#X connect 16 0 8 0;
#X connect 17 0 16 0;
#X connect 18 0 19 0;
#X connect 18 0 20 0;
#X connect 19 0 18 1;
#X connect 20 0 21 0;
#X connect 21 0 22 0;
#X connect 23 0 18 1;
