#N canvas 1037 206 601 693 12;
#X text 166 219 velocity duration;
#X obj 34 282 noteout 1, f 16;
#X msg 122 122 67;
#X obj 34 85 trigger b b b;
#X obj 34 37 bng 19 250 50 0 empty empty empty 0 -10 0 12 #fcfcfc #000000 #000000;
#X msg 34 121 60;
#X msg 78 122 64;
#X obj 34 220 makenote 80 1200;
#X msg 142 175 2000;
#X obj 40 441 noteout 1;
#X msg 40 383 60 80;
#X msg 95 384 60 0;
#X text 35 356 note on;
#X text 97 357 note off;
#X connect 2 0 7 0;
#X connect 3 0 5 0;
#X connect 3 1 6 0;
#X connect 3 2 2 0;
#X connect 4 0 3 0;
#X connect 5 0 7 0;
#X connect 6 0 7 0;
#X connect 7 0 1 0;
#X connect 7 1 1 1;
#X connect 8 0 7 2;
#X connect 10 0 9 0;
#X connect 11 0 9 0;
