#N canvas 1178 305 450 448 12;
#X obj 41 250 makenote 64 250;
#X obj 41 297 noteout 1;
#X msg 40 191 64;
#X msg 86 191 71;
#X obj 39 136 t b b;
#X obj 39 92 bng 19 250 50 0 empty empty empty 0 -10 0 12 #fcfcfc #000000 #000000;
#X connect 0 0 1 0;
#X connect 2 0 0 0;
#X connect 3 0 0 0;
#X connect 4 0 2 0;
#X connect 4 1 3 0;
#X connect 5 0 4 0;
